<mxfile host="65bd71144e">
    <diagram id="xUyWpz5xfT7DX6FFC4ux" name="Page-1">
        <mxGraphModel dx="1140" dy="910" grid="1" gridSize="10" guides="1" tooltips="1" connect="1" arrows="1" fold="1" page="1" pageScale="1" pageWidth="850" pageHeight="1100" math="0" shadow="0">
            <root>
                <mxCell id="0"/>
                <mxCell id="1" parent="0"/>
                <mxCell id="22" value="Student" style="rounded=0;whiteSpace=wrap;html=1;" parent="1" vertex="1">
                    <mxGeometry x="40" y="40" width="120" height="60" as="geometry"/>
                </mxCell>
                <mxCell id="23" value="Subject" style="rounded=0;whiteSpace=wrap;html=1;" parent="1" vertex="1">
                    <mxGeometry x="360" y="40" width="120" height="60" as="geometry"/>
                </mxCell>
                <mxCell id="24" style="edgeStyle=none;html=1;exitX=0;exitY=0;exitDx=0;exitDy=0;entryX=1;entryY=0.25;entryDx=0;entryDy=0;" parent="1" source="25" target="34" edge="1">
                    <mxGeometry relative="1" as="geometry"/>
                </mxCell>
                <mxCell id="25" value="Approval" style="rhombus;whiteSpace=wrap;html=1;" parent="1" vertex="1">
                    <mxGeometry x="500" y="320" width="80" height="80" as="geometry"/>
                </mxCell>
                <mxCell id="26" value="Exercise" style="rounded=0;whiteSpace=wrap;html=1;" parent="1" vertex="1">
                    <mxGeometry x="200" y="40" width="120" height="60" as="geometry"/>
                </mxCell>
                <mxCell id="27" value="&lt;div&gt;&lt;b&gt;COMMON NOUN&lt;/b&gt;&lt;/div&gt;&lt;div&gt;&lt;strike&gt;&lt;br&gt;&lt;/strike&gt;&lt;/div&gt;&lt;div&gt;&lt;strike&gt;Database&lt;/strike&gt;&lt;br&gt;&lt;/div&gt;&lt;div&gt;Student&lt;/div&gt;&lt;div&gt;Subject&lt;br&gt;&lt;/div&gt;&lt;div&gt;Exercise&lt;/div&gt;&lt;div&gt;&lt;strike&gt;Exam&lt;/strike&gt;&lt;/div&gt;&lt;div&gt;&lt;strike&gt;Information&lt;/strike&gt;&lt;br&gt;&lt;/div&gt;&lt;div&gt;&lt;strike&gt;Context&lt;/strike&gt;&lt;/div&gt;&lt;div&gt;&lt;strike&gt;Solution&lt;/strike&gt;&lt;/div&gt;&lt;div&gt;&lt;strike&gt;Submission&lt;/strike&gt;&lt;/div&gt;&lt;div&gt;&lt;strike&gt;Deadline&lt;br&gt;&lt;/strike&gt;&lt;/div&gt;&lt;div&gt;&lt;strike&gt;&lt;br&gt;&lt;/strike&gt;&lt;/div&gt;&lt;div&gt;&lt;b&gt;PROPER NOUN&lt;/b&gt;&lt;/div&gt;&lt;div&gt;&lt;br&gt;&lt;/div&gt;&lt;div&gt;URL&lt;/div&gt;&lt;div&gt;PDF&lt;/div&gt;" style="shape=note;whiteSpace=wrap;html=1;backgroundOutline=1;darkOpacity=0.05;" parent="1" vertex="1">
                    <mxGeometry x="660" y="20" width="150" height="310" as="geometry"/>
                </mxCell>
                <mxCell id="32" value="&lt;div&gt;Solution&lt;/div&gt;&lt;div&gt;Proposal&lt;br&gt;&lt;/div&gt;" style="ellipse;whiteSpace=wrap;html=1;" parent="1" vertex="1">
                    <mxGeometry x="425" y="150" width="86" height="40" as="geometry"/>
                </mxCell>
                <mxCell id="33" value="&lt;div align=&quot;left&quot;&gt;&lt;b&gt;Exercises have:&lt;/b&gt;&lt;/div&gt;&lt;div align=&quot;left&quot;&gt;&lt;br&gt;&lt;/div&gt;&lt;ul&gt;&lt;li&gt;unique practice number&lt;/li&gt;&lt;li&gt;title&lt;/li&gt;&lt;li&gt;assignment text&lt;/li&gt;&lt;li&gt;solution proposal&lt;/li&gt;&lt;li&gt;submission deadline&lt;/li&gt;&lt;/ul&gt;" style="shape=note;whiteSpace=wrap;html=1;backgroundOutline=1;darkOpacity=0.05;align=left;" parent="1" vertex="1">
                    <mxGeometry x="60" y="910" width="180" height="190" as="geometry"/>
                </mxCell>
                <mxCell id="34" value="Exercise" style="rounded=0;whiteSpace=wrap;html=1;" parent="1" vertex="1">
                    <mxGeometry x="317" y="240" width="120" height="60" as="geometry"/>
                </mxCell>
                <mxCell id="35" value="" style="endArrow=none;html=1;rounded=0;entryX=0.5;entryY=0;entryDx=0;entryDy=0;exitX=0.5;exitY=1;exitDx=0;exitDy=0;" parent="1" target="34" edge="1">
                    <mxGeometry width="50" height="50" relative="1" as="geometry">
                        <mxPoint x="377" y="188.75" as="sourcePoint"/>
                        <mxPoint x="130" y="520" as="targetPoint"/>
                    </mxGeometry>
                </mxCell>
                <mxCell id="36" value="" style="endArrow=none;html=1;rounded=0;entryX=0;entryY=0;entryDx=0;entryDy=0;exitX=0.5;exitY=1;exitDx=0;exitDy=0;" parent="1" source="66" target="34" edge="1">
                    <mxGeometry width="50" height="50" relative="1" as="geometry">
                        <mxPoint x="122" y="553" as="sourcePoint"/>
                        <mxPoint x="180" y="580" as="targetPoint"/>
                    </mxGeometry>
                </mxCell>
                <mxCell id="37" value="" style="endArrow=none;html=1;rounded=0;entryX=0.25;entryY=0;entryDx=0;entryDy=0;exitX=0.5;exitY=1;exitDx=0;exitDy=0;" parent="1" source="65" target="34" edge="1">
                    <mxGeometry width="50" height="50" relative="1" as="geometry">
                        <mxPoint x="298.1300814201802" y="188.94187611063603" as="sourcePoint"/>
                        <mxPoint x="110" y="730" as="targetPoint"/>
                    </mxGeometry>
                </mxCell>
                <mxCell id="38" value="" style="endArrow=none;html=1;rounded=0;exitX=0.5;exitY=1;exitDx=0;exitDy=0;entryX=0.75;entryY=0;entryDx=0;entryDy=0;" parent="1" source="32" target="34" edge="1">
                    <mxGeometry width="50" height="50" relative="1" as="geometry">
                        <mxPoint x="120" y="770" as="sourcePoint"/>
                        <mxPoint x="377" y="240" as="targetPoint"/>
                    </mxGeometry>
                </mxCell>
                <mxCell id="39" value="" style="endArrow=none;html=1;rounded=0;exitX=1;exitY=0;exitDx=0;exitDy=0;entryX=0.5;entryY=1;entryDx=0;entryDy=0;" parent="1" source="34" target="63" edge="1">
                    <mxGeometry width="50" height="50" relative="1" as="geometry">
                        <mxPoint x="310" y="640" as="sourcePoint"/>
                        <mxPoint x="533.5990859251531" y="185.02491044909993" as="targetPoint"/>
                    </mxGeometry>
                </mxCell>
                <mxCell id="40" value="Date" style="ellipse;whiteSpace=wrap;html=1;" parent="1" vertex="1">
                    <mxGeometry x="380" y="380" width="80" height="40" as="geometry"/>
                </mxCell>
                <mxCell id="41" value="" style="endArrow=none;html=1;rounded=0;entryX=0;entryY=0.5;entryDx=0;entryDy=0;exitX=1;exitY=0.5;exitDx=0;exitDy=0;" parent="1" source="40" target="25" edge="1">
                    <mxGeometry width="50" height="50" relative="1" as="geometry">
                        <mxPoint x="685" y="705" as="sourcePoint"/>
                        <mxPoint x="735" y="655" as="targetPoint"/>
                    </mxGeometry>
                </mxCell>
                <mxCell id="42" style="edgeStyle=none;html=1;exitX=1;exitY=0;exitDx=0;exitDy=0;entryX=0.5;entryY=1;entryDx=0;entryDy=0;" parent="1" source="43" target="25" edge="1">
                    <mxGeometry relative="1" as="geometry"/>
                </mxCell>
                <mxCell id="43" value="Student" style="rounded=0;whiteSpace=wrap;html=1;" parent="1" vertex="1">
                    <mxGeometry x="480" y="750" width="120" height="60" as="geometry"/>
                </mxCell>
                <mxCell id="44" value="Email" style="ellipse;whiteSpace=wrap;html=1;" parent="1" vertex="1">
                    <mxGeometry x="500" y="675" width="60" height="40" as="geometry"/>
                </mxCell>
                <mxCell id="45" value="Name" style="ellipse;whiteSpace=wrap;html=1;" parent="1" vertex="1">
                    <mxGeometry x="420" y="675" width="60" height="40" as="geometry"/>
                </mxCell>
                <mxCell id="46" value="&lt;div&gt;&lt;u&gt;StudentNo&lt;/u&gt;&lt;/div&gt;" style="ellipse;whiteSpace=wrap;html=1;" parent="1" vertex="1">
                    <mxGeometry x="435" y="850" width="90" height="50" as="geometry"/>
                </mxCell>
                <mxCell id="47" value="" style="endArrow=none;html=1;rounded=0;exitX=0.5;exitY=1;exitDx=0;exitDy=0;entryX=0.25;entryY=0;entryDx=0;entryDy=0;" parent="1" source="44" target="43" edge="1">
                    <mxGeometry width="50" height="50" relative="1" as="geometry">
                        <mxPoint x="220" y="840" as="sourcePoint"/>
                        <mxPoint x="270" y="790" as="targetPoint"/>
                    </mxGeometry>
                </mxCell>
                <mxCell id="48" value="" style="endArrow=none;html=1;rounded=0;exitX=1;exitY=1;exitDx=0;exitDy=0;entryX=0;entryY=0.25;entryDx=0;entryDy=0;" parent="1" source="45" target="43" edge="1">
                    <mxGeometry width="50" height="50" relative="1" as="geometry">
                        <mxPoint x="330" y="830" as="sourcePoint"/>
                        <mxPoint x="380" y="780" as="targetPoint"/>
                    </mxGeometry>
                </mxCell>
                <mxCell id="49" value="" style="endArrow=none;html=1;rounded=0;entryX=0.25;entryY=1;entryDx=0;entryDy=0;" parent="1" source="46" target="43" edge="1">
                    <mxGeometry width="50" height="50" relative="1" as="geometry">
                        <mxPoint x="120" y="910" as="sourcePoint"/>
                        <mxPoint x="170" y="860" as="targetPoint"/>
                    </mxGeometry>
                </mxCell>
                <mxCell id="50" value="Name" style="ellipse;whiteSpace=wrap;html=1;" parent="1" vertex="1">
                    <mxGeometry x="190" y="655" width="60" height="40" as="geometry"/>
                </mxCell>
                <mxCell id="51" style="edgeStyle=none;html=1;exitX=1;exitY=1;exitDx=0;exitDy=0;" parent="1" source="52" target="60" edge="1">
                    <mxGeometry relative="1" as="geometry"/>
                </mxCell>
                <mxCell id="52" value="Subject" style="rounded=0;whiteSpace=wrap;html=1;" parent="1" vertex="1">
                    <mxGeometry x="40" y="655" width="120" height="60" as="geometry"/>
                </mxCell>
                <mxCell id="53" value="" style="endArrow=none;html=1;rounded=0;entryX=0;entryY=0.5;entryDx=0;entryDy=0;exitX=1;exitY=0.5;exitDx=0;exitDy=0;" parent="1" source="52" target="50" edge="1">
                    <mxGeometry width="50" height="50" relative="1" as="geometry">
                        <mxPoint x="640" y="860" as="sourcePoint"/>
                        <mxPoint x="690" y="810" as="targetPoint"/>
                    </mxGeometry>
                </mxCell>
                <mxCell id="54" value="&lt;div&gt;&lt;u&gt;SubjectNo&lt;/u&gt;&lt;/div&gt;" style="ellipse;whiteSpace=wrap;html=1;" parent="1" vertex="1">
                    <mxGeometry x="20" y="750" width="90" height="50" as="geometry"/>
                </mxCell>
                <mxCell id="55" value="" style="endArrow=none;html=1;rounded=0;entryX=0.5;entryY=0;entryDx=0;entryDy=0;exitX=0.25;exitY=1;exitDx=0;exitDy=0;" parent="1" source="52" target="54" edge="1">
                    <mxGeometry width="50" height="50" relative="1" as="geometry">
                        <mxPoint x="530" y="900" as="sourcePoint"/>
                        <mxPoint x="580" y="850" as="targetPoint"/>
                    </mxGeometry>
                </mxCell>
                <mxCell id="56" style="edgeStyle=none;html=1;exitX=1;exitY=0;exitDx=0;exitDy=0;entryX=0;entryY=0.5;entryDx=0;entryDy=0;" parent="1" source="58" target="34" edge="1">
                    <mxGeometry relative="1" as="geometry"/>
                </mxCell>
                <mxCell id="57" style="edgeStyle=none;html=1;exitX=0.5;exitY=1;exitDx=0;exitDy=0;" parent="1" source="58" target="52" edge="1">
                    <mxGeometry relative="1" as="geometry"/>
                </mxCell>
                <mxCell id="58" value="is part of" style="rhombus;whiteSpace=wrap;html=1;" parent="1" vertex="1">
                    <mxGeometry x="180" y="320" width="80" height="80" as="geometry"/>
                </mxCell>
                <mxCell id="59" style="edgeStyle=none;html=1;exitX=1;exitY=0.5;exitDx=0;exitDy=0;entryX=0;entryY=0.75;entryDx=0;entryDy=0;" parent="1" source="60" target="43" edge="1">
                    <mxGeometry relative="1" as="geometry"/>
                </mxCell>
                <mxCell id="60" value="Participates in" style="rhombus;whiteSpace=wrap;html=1;" parent="1" vertex="1">
                    <mxGeometry x="290" y="740" width="80" height="80" as="geometry"/>
                </mxCell>
                <mxCell id="62" value="&lt;div&gt;&lt;u&gt;PracticeNo&lt;/u&gt;&lt;/div&gt;" style="ellipse;whiteSpace=wrap;html=1;" vertex="1" parent="1">
                    <mxGeometry x="334" y="150" width="86" height="40" as="geometry"/>
                </mxCell>
                <mxCell id="63" value="&lt;div&gt;&lt;div&gt;Submission&lt;/div&gt;&lt;div&gt;Deadline&lt;/div&gt;&lt;/div&gt;" style="ellipse;whiteSpace=wrap;html=1;" vertex="1" parent="1">
                    <mxGeometry x="525" y="147.5" width="86" height="40" as="geometry"/>
                </mxCell>
                <mxCell id="65" value="&lt;div&gt;Assignment&lt;/div&gt;&lt;div&gt;Text&lt;/div&gt;" style="ellipse;whiteSpace=wrap;html=1;" vertex="1" parent="1">
                    <mxGeometry x="240" y="150" width="86" height="40" as="geometry"/>
                </mxCell>
                <mxCell id="66" value="&lt;div&gt;Assignment&lt;/div&gt;&lt;div&gt;Text&lt;/div&gt;" style="ellipse;whiteSpace=wrap;html=1;" vertex="1" parent="1">
                    <mxGeometry x="140" y="150" width="86" height="40" as="geometry"/>
                </mxCell>
            </root>
        </mxGraphModel>
    </diagram>
</mxfile>